<?xml version="1.0" encoding="utf-8"?>
<!-- Generator: Adobe Illustrator 23.0.0, SVG Export Plug-In . SVG Version: 6.00 Build 0)  -->
<svg version="1.1" id="Capa_1" xmlns="http://www.w3.org/2000/svg" xmlns:xlink="http://www.w3.org/1999/xlink" x="0px" y="0px"
	 viewBox="0 0 512 512" style="enable-background:new 0 0 512 512;" xml:space="preserve">
<style type="text/css">
	.st0{fill:#FFFFFF;}
	.st1{fill:#F7C341;}
</style>
<g>
	<path class="st0" d="M311.5,202.1c8,0,14.5-6.5,14.5-14.5c0-8-6.5-14.5-14.5-14.5s-14.5,6.5-14.5,14.5c0,3.3,1.1,6.3,2.9,8.7
		l-24.1,33.5c-1.5-0.4-2.9-0.7-4.6-0.7c-3.8,0-7.4,1.6-10,3.9l-16-9c0.3-1,0.3-2.1,0.3-3.1c0-8-6.5-14.5-14.5-14.5
		c-8,0-14.5,6.5-14.5,14.5c0,1,0.1,2.1,0.3,3.1l-16,9c-2.6-2.4-6.1-3.9-10-3.9c-8,0-14.5,6.5-14.5,14.5c0,8,6.5,14.5,14.5,14.5
		c8,0,14.5-6.5,14.5-14.5c0-1-0.1-2.1-0.3-3.1l16-9c2.6,2.4,6.1,3.9,10,3.9c3.9,0,7.4-1.6,10-3.9l16,9c-0.3,1-0.3,2.1-0.3,3.1
		c0,8,6.5,14.5,14.5,14.5c8,0,14.5-6.5,14.5-14.5c0-3.3-1.1-6.3-2.9-8.7l24-33.5C308.4,201.9,310,202.1,311.5,202.1z M311.5,181.8
		c3.2,0,5.8,2.6,5.8,5.8c0,3.2-2.6,5.8-5.8,5.8s-5.8-2.6-5.8-5.8C305.7,184.3,308.3,181.8,311.5,181.8z M191.1,249.5
		c-3.2,0-5.8-2.6-5.8-5.8c0-3.2,2.6-5.8,5.8-5.8c3.2,0,5.8,2.6,5.8,5.8C196.9,246.8,194.3,249.5,191.1,249.5z M231.3,226.6
		c-3.2,0-5.8-2.6-5.8-5.8s2.6-5.8,5.8-5.8c3.2,0,5.8,2.6,5.8,5.8C237.1,224.1,234.5,226.6,231.3,226.6z M271.4,249.5
		c-3.2,0-5.8-2.6-5.8-5.8c0-3.2,2.6-5.8,5.8-5.8c3.2,0,5.8,2.6,5.8,5.8C277.2,246.8,274.6,249.5,271.4,249.5z"/>
	<path class="st0" d="M365.3,344.4h-30.6H168h-34.5c-2,0-3.6-1.6-3.6-3.6V160.3c0-2,1.6-3.6,3.6-3.6h20.6c2.4,0,4.4-2,4.4-4.4
		c0-2.4-2-4.4-4.4-4.4h-20.6c-6.8,0-12.4,5.5-12.4,12.4v180.4c0,6.8,5.5,12.4,12.4,12.4h30.1v9.6c0,5.5,4.5,10,10,10h43.8
		l-20.6,40.2c-1.1,2.2-0.3,4.8,1.9,5.9c0.6,0.3,1.3,0.4,2,0.4c1.6,0,3.1-0.9,3.9-2.4l22.6-44.2h48.3l22.6,44.2
		c0.8,1.6,2.3,2.4,3.9,2.4c0.7,0,1.3-0.2,2-0.4c2.2-1.1,2.9-3.7,1.9-5.9l-20.6-40.2H329c5.5,0,10-4.4,10-10V353h26.2
		c2.4,0,4.4-2,4.4-4.4C369.8,346.3,367.7,344.4,365.3,344.4z M330.3,362.8c0,0.6-0.5,1.2-1.2,1.2H173.6c-0.6,0-1.2-0.5-1.2-1.2v-9.6
		h157.9V362.8z"/>
	<path class="st0" d="M171.6,156.7h59.9h39.8h98c2,0,3.6,1.6,3.6,3.6v41.5c0,2.4,2,4.4,4.4,4.4c2.4,0,4.4-2,4.4-4.4v-41.5
		c0-6.8-5.5-12.4-12.4-12.4h-93.7v-8.6c0-6.1-4.9-11-11-11H238c-6.1,0-11,4.9-11,11v8.6h-55.5c-2.4,0-4.4,2-4.4,4.4
		C167.2,154.7,169.1,156.7,171.6,156.7z M235.8,139.4c0-1.2,1-2.3,2.3-2.3h26.6c1.2,0,2.3,1,2.3,2.3v8.6h-31.1L235.8,139.4
		L235.8,139.4z"/>
	<path class="st0" d="M182.3,280.5c-2.4,0-4.4,2-4.4,4.4v38.7c0,2.4,2,4.4,4.4,4.4H200c2.4,0,4.4-2,4.4-4.4V285c0-2.4-2-4.4-4.4-4.4
		H182.3L182.3,280.5z M195.6,319.1h-9v-29.9h9V319.1z"/>
	<path class="st0" d="M222.4,258.2c-2.4,0-4.4,2-4.4,4.4v61c0,2.4,2,4.4,4.4,4.4h17.7c2.4,0,4.4-2,4.4-4.4v-61c0-2.4-2-4.4-4.4-4.4
		H222.4L222.4,258.2z M235.8,319.1h-9v-52.3h9V319.1z"/>
	<path class="st0" d="M262.5,280.5c-2.4,0-4.4,2-4.4,4.4v38.7c0,2.4,2,4.4,4.4,4.4h17.7c2.4,0,4.4-2,4.4-4.4V285
		c0-2.4-2-4.4-4.4-4.4H262.5L262.5,280.5z M275.9,319.1h-9v-29.9h9V319.1z"/>
	<path class="st0" d="M302.7,306.3c-2.4,0-4.4,2-4.4,4.4v12.8c0,2.4,2,4.4,4.4,4.4h17.7c2.4,0,4.4-2,4.4-4.4s-2-4.4-4.4-4.4h-13.3
		v-8.5C307,308.3,305.1,306.3,302.7,306.3z"/>
	<path class="st0" d="M417.4,348.5L392.3,305c6.3-6.8,11-15.1,13.5-24.2c4-14.7,1.9-30.1-5.7-43.4c-15.8-27.3-50.8-36.7-78.1-20.9
		c-27.3,15.8-36.7,50.8-20.9,78.1c7.6,13.2,19.9,22.7,34.7,26.7c4.9,1.3,10,2,14.9,2c4.3,0,8.7-0.5,12.9-1.5l25.1,43.4
		c3.1,5.3,8.7,8.3,14.4,8.3c2.8,0,5.6-0.7,8.3-2.3c5.1-2.9,8.3-8.5,8.3-14.4C419.6,353.8,418.8,351,417.4,348.5z M338.1,312.7
		c-12.5-3.3-22.9-11.3-29.4-22.6c-13.3-23.1-5.5-52.8,17.7-66.1c7.6-4.4,15.9-6.5,24.1-6.5c16.7,0,33.1,8.7,42,24.2
		c6.5,11.2,8.1,24.2,4.8,36.7c-3.3,12.5-11.3,22.9-22.6,29.4S350.5,316,338.1,312.7z M406.9,363.6c-3.8,2.2-8.6,0.9-10.8-2.9
		L372,319c2.4-1,4.8-2.2,7.1-3.5c2.3-1.3,4.5-2.8,6.5-4.4l24.1,41.8c0.7,1.2,1,2.6,1,3.9C410.9,359.6,409.4,362.2,406.9,363.6z"/>
	<path class="st0" d="M390.2,278.3c3.1-10,2.3-20.6-2.1-29.9c-1-2.2-3.6-3.1-5.8-2.1c-2.2,1-3.1,3.6-2.1,5.8
		c3.5,7.4,4.1,15.8,1.6,23.7c-2.4,7.9-7.8,14.5-14.9,18.7c-7.6,4.4-16.4,5.5-24.9,3.3c-8.5-2.3-15.5-7.7-19.9-15.3
		c-9-15.7-3.6-35.7,12-44.7c11.4-6.6,25.6-5.7,36.2,2.3c1.9,1.5,4.7,1,6.1-0.9s1-4.7-0.9-6.1c-13.3-10.1-31.3-11.2-45.9-2.9
		c-9.6,5.5-16.5,14.5-19.4,25.2c-2.9,10.6-1.4,21.9,4.2,31.5c5.5,9.6,14.5,16.5,25.2,19.4c3.5,1,7.3,1.5,10.8,1.5
		c7.2,0,14.3-1.9,20.7-5.6C380.4,296.6,387.1,288.2,390.2,278.3z"/>
</g>
<path class="st1" d="M255.8,511.2C114.9,511.1,0.8,396.8,0.9,255.9C1,153.5,62.3,61,156.6,21.1C286.3-33.8,436,26.8,490.9,156.5
	c40.6,95.8,18.9,206.6-54.7,280C388.4,484.4,323.5,511.3,255.8,511.2z M255.8,12.1c-134.8,0-244,109.3-244,244
	c0,64.7,25.7,126.8,71.5,172.6c95,95.6,249.6,96,345.1,0.9s96-249.6,0.9-345.1c-0.3-0.3-0.6-0.6-0.9-0.9
	C382.7,37.6,320.6,11.9,255.8,12.1z"/>
</svg>
