<?xml version="1.0" encoding="utf-8"?>
<!-- Generator: Adobe Illustrator 23.0.0, SVG Export Plug-In . SVG Version: 6.00 Build 0)  -->
<svg version="1.1" id="Capa_1" xmlns="http://www.w3.org/2000/svg" xmlns:xlink="http://www.w3.org/1999/xlink" x="0px" y="0px"
	 viewBox="0 0 512 512" style="enable-background:new 0 0 512 512;" xml:space="preserve">
<style type="text/css">
	.st0{fill:#FFFFFF;}
	.st1{fill:#F7C341;}
</style>
<g>
	<path class="st0" d="M317.9,191c9.3,0,16.8-7.5,16.8-16.8s-7.5-16.8-16.8-16.8s-16.8,7.5-16.8,16.8c0,3.8,1.3,7.3,3.4,10.1
		L276.7,223c-1.7-0.5-3.4-0.8-5.3-0.8c-4.4,0-8.5,1.8-11.5,4.5l-18.5-10.4c0.3-1.1,0.4-2.4,0.4-3.6c0-9.3-7.5-16.8-16.8-16.8
		s-16.8,7.5-16.8,16.8c0,1.2,0.1,2.4,0.4,3.6l-18.5,10.4c-3-2.8-7-4.5-11.5-4.5c-9.3,0-16.8,7.5-16.8,16.8s7.5,16.8,16.8,16.8
		s16.8-7.5,16.8-16.8c0-1.2-0.1-2.4-0.4-3.6l18.5-10.4c3,2.8,7,4.5,11.5,4.5s8.5-1.8,11.5-4.5l18.5,10.4c-0.3,1.1-0.4,2.4-0.4,3.6
		c0,9.3,7.5,16.8,16.8,16.8s16.8-7.5,16.8-16.8c0-3.8-1.3-7.3-3.4-10.1l27.7-38.7C314.3,190.7,316.1,191,317.9,191z M317.9,167.5
		c3.7,0,6.7,3,6.7,6.7c0,3.7-3,6.7-6.7,6.7s-6.7-3-6.7-6.7C311.2,170.4,314.2,167.5,317.9,167.5z M178.8,245.7c-3.7,0-6.7-3-6.7-6.7
		c0-3.7,3-6.7,6.7-6.7s6.7,3,6.7,6.7C185.5,242.6,182.5,245.7,178.8,245.7z M225.2,219.3c-3.7,0-6.7-3-6.7-6.7c0-3.7,3-6.7,6.7-6.7
		c3.7,0,6.7,3,6.7,6.7C231.9,216.4,228.9,219.3,225.2,219.3z M271.6,245.7c-3.7,0-6.7-3-6.7-6.7c0-3.7,3-6.7,6.7-6.7s6.7,3,6.7,6.7
		C278.3,242.6,275.3,245.7,271.6,245.7z"/>
	<path class="st0" d="M380,355.4h-35.4H152.1h-39.9c-2.3,0-4.2-1.9-4.2-4.2V142.7c0-2.3,1.9-4.2,4.2-4.2H136c2.8,0,5.1-2.3,5.1-5.1
		c0-2.8-2.3-5.1-5.1-5.1h-23.8c-7.9,0-14.3,6.4-14.3,14.3v208.4c0,7.9,6.4,14.3,14.3,14.3H147v11.1c0,6.3,5.2,11.5,11.5,11.5h50.6
		l-23.8,46.5c-1.3,2.5-0.3,5.5,2.2,6.8c0.7,0.4,1.5,0.5,2.3,0.5c1.8,0,3.6-1,4.5-2.8l26.1-51.1h55.8l26.1,51.1
		c0.9,1.8,2.7,2.8,4.5,2.8c0.8,0,1.5-0.2,2.3-0.5c2.5-1.3,3.4-4.3,2.2-6.8l-23.8-46.5h50.6c6.3,0,11.5-5.1,11.5-11.5v-11.1h30.3
		c2.8,0,5.1-2.3,5.1-5.1C385.2,357.6,382.8,355.4,380,355.4z M339.6,376.6c0,0.7-0.6,1.4-1.4,1.4H158.5c-0.7,0-1.4-0.6-1.4-1.4
		v-11.1h182.5V376.6z"/>
	<path class="st0" d="M156.2,138.5h69.2h46h113.2c2.3,0,4.2,1.9,4.2,4.2v48c0,2.8,2.3,5.1,5.1,5.1c2.8,0,5.1-2.3,5.1-5.1v-48
		c0-7.9-6.4-14.3-14.3-14.3H276.4v-9.9c0-7-5.7-12.7-12.7-12.7H233c-7,0-12.7,5.7-12.7,12.7v9.9h-64.1c-2.8,0-5.1,2.3-5.1,5.1
		C151.2,136.2,153.4,138.5,156.2,138.5z M230.4,118.5c0-1.4,1.1-2.6,2.6-2.6h30.7c1.4,0,2.6,1.1,2.6,2.6v9.9h-35.9L230.4,118.5
		L230.4,118.5z"/>
	<path class="st0" d="M168.6,281.6c-2.8,0-5.1,2.3-5.1,5.1v44.7c0,2.8,2.3,5.1,5.1,5.1H189c2.8,0,5.1-2.3,5.1-5.1v-44.7
		c0-2.8-2.3-5.1-5.1-5.1H168.6L168.6,281.6z M184,326.2h-10.4v-34.6H184V326.2z"/>
	<path class="st0" d="M214.9,255.8c-2.8,0-5.1,2.3-5.1,5.1v70.5c0,2.8,2.3,5.1,5.1,5.1h20.5c2.8,0,5.1-2.3,5.1-5.1v-70.5
		c0-2.8-2.3-5.1-5.1-5.1H214.9z M230.4,326.2H220v-60.4h10.4V326.2z"/>
	<path class="st0" d="M261.3,281.6c-2.8,0-5.1,2.3-5.1,5.1v44.7c0,2.8,2.3,5.1,5.1,5.1h20.5c2.8,0,5.1-2.3,5.1-5.1v-44.7
		c0-2.8-2.3-5.1-5.1-5.1H261.3L261.3,281.6z M276.7,326.2h-10.4v-34.6h10.4V326.2z"/>
	<path class="st0" d="M307.7,311.4c-2.8,0-5.1,2.3-5.1,5.1v14.8c0,2.8,2.3,5.1,5.1,5.1h20.5c2.8,0,5.1-2.3,5.1-5.1
		c0-2.8-2.3-5.1-5.1-5.1h-15.4v-9.8C312.7,313.7,310.5,311.4,307.7,311.4z"/>
	<path class="st0" d="M440.3,360.1l-29-50.2c7.3-7.8,12.7-17.4,15.6-28c4.6-17,2.2-34.8-6.6-50.1c-18.2-31.5-58.7-42.4-90.2-24.2
		s-42.4,58.7-24.2,90.2c8.8,15.3,23,26.2,40.1,30.8c5.7,1.5,11.5,2.3,17.2,2.3c5,0,10-0.6,14.9-1.7l29,50.2c3.6,6.1,10,9.6,16.6,9.6
		c3.2,0,6.5-0.8,9.6-2.6c5.9-3.4,9.6-9.8,9.6-16.6C442.8,366.3,441.9,363,440.3,360.1z M348.6,318.8c-14.4-3.8-26.5-13.1-34-26.1
		c-15.4-26.7-6.3-61,20.5-76.4c8.8-5.1,18.4-7.5,27.9-7.5c19.3,0,38.2,10,48.5,28c7.5,12.9,9.4,28,5.6,42.4
		c-3.8,14.4-13.1,26.5-26.1,34C378,320.7,363,322.6,348.6,318.8z M428.1,377.6c-4.4,2.5-9.9,1-12.5-3.3L387.8,326
		c2.8-1.1,5.5-2.5,8.2-4c2.6-1.5,5.2-3.2,7.5-5.1l27.9,48.3c0.8,1.4,1.2,3,1.2,4.5C432.7,372.9,431,376,428.1,377.6z"/>
	<path class="st0" d="M408.8,279c3.6-11.5,2.7-23.8-2.4-34.6c-1.2-2.5-4.2-3.6-6.7-2.4c-2.5,1.2-3.6,4.2-2.4,6.7
		c4,8.6,4.7,18.3,1.9,27.4s-9,16.8-17.2,21.6c-8.8,5.1-19,6.4-28.8,3.8c-9.8-2.6-17.9-8.9-23-17.7c-10.4-18.1-4.2-41.3,13.9-51.7
		c13.2-7.6,29.6-6.6,41.8,2.6c2.2,1.7,5.4,1.2,7.1-1c1.7-2.2,1.2-5.4-1-7.1c-15.4-11.7-36.2-12.9-53-3.3
		c-11.1,6.4-19.1,16.8-22.4,29.1c-3.3,12.3-1.6,25.3,4.8,36.4c6.4,11.1,16.8,19.1,29.1,22.4c4.1,1.1,8.4,1.7,12.5,1.7
		c8.3,0,16.5-2.2,23.9-6.5C397.5,300.2,405.2,290.5,408.8,279z"/>
</g>
<path class="st1" d="M255.8,511.2C114.9,511.1,0.8,396.8,0.9,255.9C1,153.5,62.3,61,156.6,21.1C286.3-33.8,436,26.8,490.9,156.5
	c40.6,95.8,18.9,206.6-54.7,280C388.4,484.4,323.5,511.3,255.8,511.2z M255.8,12.1c-134.8,0-244,109.3-244,244
	c0,64.7,25.7,126.8,71.5,172.6c95,95.6,249.6,96,345.1,0.9s96-249.6,0.9-345.1c-0.3-0.3-0.6-0.6-0.9-0.9
	C382.7,37.6,320.6,11.9,255.8,12.1z"/>
</svg>
