<?xml version="1.0" encoding="utf-8"?>
<!-- Generator: Adobe Illustrator 23.0.0, SVG Export Plug-In . SVG Version: 6.00 Build 0)  -->
<svg version="1.1" id="Capa_1" xmlns="http://www.w3.org/2000/svg" xmlns:xlink="http://www.w3.org/1999/xlink" x="0px" y="0px"
	 viewBox="0 0 512 512" style="enable-background:new 0 0 512 512;" xml:space="preserve">
<style type="text/css">
	.st0{fill:#FFFFFF;}
	.st1{fill:#F7C341;}
</style>
<title>experiencias</title>
<path class="st0" d="M259.2,401.3c-5.4,0-10.6-2.1-14.3-5.9l-41.1-41.1c-1.8-1.8-4.4-2.9-7-2.9h-58.2c-17.7,0-31.9-14.3-31.9-31.9
	V168.9c0-17.7,14.3-31.9,31.9-31.9h77.2c2.8,0,5.1,2.3,5.1,5.1c0,2.8-2.3,5.1-5.1,5.1h-77.2c-12.1,0-21.8,9.8-21.8,21.8v150.4
	c0,12.1,9.8,21.8,21.8,21.8h58.2c5.3,0,10.4,2.1,14.2,5.9l41.1,41.1c4,4,10.3,4,14.3,0l0,0l41.1-41c3.8-3.8,8.9-5.9,14.2-5.9h51.8
	c12.1,0,21.8-9.8,21.8-21.8V169c0-12.1-9.8-21.8-21.8-21.8H256c-2.8,0-5.1-2.3-5.1-5.1c0-2.8,2.3-5.1,5.1-5.1l0,0h117.3
	c17.7,0,31.9,14.3,31.9,31.9v150.4c0,17.7-14.3,31.9-31.9,31.9h-51.8c-2.6,0-5.1,1.1-7,2.9l-41.1,41.1
	C269.7,399.2,264.5,401.3,259.2,401.3z"/>
<path class="st0" d="M168.5,309.9c-17.2,0-31.2-14-31.2-31.2v-82.2c0.1-17.2,14-31.2,31.2-31.2H282c14.7,0.1,27.4,10.4,30.5,24.7
	l1.1,5.5l42.1-20.1c1.8-0.8,3.7-1.2,5.7-1.2c2.5,0,4.9,0.7,7,2c3.9,2.4,6.2,6.6,6.2,11.2v100.5c0,7.3-5.9,13.2-13.2,13.2
	c-2,0-4-0.5-5.7-1.3l-42.2-20.1l-1.1,5.5c-3.1,14.4-15.8,24.7-30.5,24.7L168.5,309.9L168.5,309.9z M168.5,178.9
	c-9.8,0-17.7,7.9-17.7,17.7v82.2c0,9.8,7.9,17.7,17.7,17.7h113.4c9.8,0,17.7-7.9,17.7-17.7v-82.2c0-9.8-7.9-17.7-17.7-17.7H168.5z
	 M313.1,210.8v53.9l48.1,22.8v-99.6L313.1,210.8z"/>
<path class="st1" d="M255.8,511.2C114.9,511.1,0.8,396.8,0.9,255.9C1,153.5,62.3,61,156.6,21.1C286.3-33.8,436,26.8,490.9,156.5
	c40.6,95.8,18.9,206.6-54.7,280C388.4,484.4,323.5,511.3,255.8,511.2z M255.8,12.1c-134.8,0-244,109.3-244,244
	c0,64.7,25.7,126.8,71.5,172.6c95,95.6,249.6,96,345.1,0.9s96-249.6,0.9-345.1c-0.3-0.3-0.6-0.6-0.9-0.9
	C382.7,37.6,320.6,11.9,255.8,12.1z"/>
</svg>
