<?xml version="1.0" encoding="utf-8"?>
<!-- Generator: Adobe Illustrator 23.0.0, SVG Export Plug-In . SVG Version: 6.00 Build 0)  -->
<svg version="1.1" id="Capa_1" xmlns="http://www.w3.org/2000/svg" xmlns:xlink="http://www.w3.org/1999/xlink" x="0px" y="0px"
	 viewBox="0 0 512 512" style="enable-background:new 0 0 512 512;" xml:space="preserve">
<style type="text/css">
	.st0{fill:#FFFFFF;}
	.st1{fill:#F7C341;}
</style>
<title>experiencias</title>
<path class="st0" d="M259.6,419.3c-6.1,0-12-2.4-16.3-6.7l-46.7-46.7c-2.1-2.1-5-3.3-7.9-3.3h-66.1c-20.1,0-36.3-16.3-36.3-36.3
	V155.3c0-20.1,16.3-36.3,36.3-36.3h87.7c3.2,0,5.8,2.6,5.8,5.8c0,3.2-2.6,5.8-5.8,5.8h-87.7c-13.7,0-24.8,11.1-24.8,24.8v170.9
	c0,13.7,11.1,24.8,24.8,24.8h66.1c6,0,11.8,2.4,16.1,6.7l46.7,46.7c4.5,4.5,11.7,4.5,16.2,0c0,0,0,0,0,0l46.7-46.6
	c4.3-4.3,10.1-6.7,16.1-6.7h58.8c13.7,0,24.8-11.1,24.8-24.8V155.4c0-13.7-11.1-24.8-24.8-24.8H256c-3.2,0-5.8-2.6-5.8-5.8
	c0-3.2,2.6-5.8,5.8-5.8l0,0h133.3c20.1,0,36.3,16.3,36.3,36.3v170.9c0,20.1-16.3,36.3-36.3,36.3h-58.8c-3,0-5.8,1.2-7.9,3.3
	l-46.7,46.7C271.6,416.9,265.7,419.3,259.6,419.3z"/>
<path class="st0" d="M156.6,315.5c-19.5,0-35.4-15.9-35.4-35.4v-93.4c0.1-19.5,15.9-35.4,35.4-35.5h128.9
	c16.7,0.1,31.1,11.8,34.6,28.1l1.3,6.2l47.8-22.8c2-0.9,4.2-1.4,6.5-1.4c2.8,0,5.6,0.8,8,2.3c4.4,2.7,7,7.5,7,12.7v114.2
	c0,8.3-6.7,15-15,15c-2.3,0-4.5-0.6-6.5-1.5l-47.9-22.8l-1.3,6.2c-3.5,16.4-17.9,28.1-34.6,28.1H156.6z M156.6,166.6
	c-11.1,0-20.1,9-20.1,20.1v93.4c0,11.1,9,20.1,20.1,20.1h128.8c11.1,0,20.1-9,20.1-20.1v-93.4c0-11.1-9-20.1-20.1-20.1L156.6,166.6z
	 M320.9,202.9v61.2l54.6,25.9V176.8L320.9,202.9z"/>
<path class="st1" d="M255.8,511.2C114.9,511.1,0.8,396.8,0.9,255.9C1,153.5,62.3,61,156.6,21.1C286.3-33.8,436,26.8,490.9,156.5
	c40.6,95.8,18.9,206.6-54.7,280C388.4,484.4,323.5,511.3,255.8,511.2z M255.8,12.1c-134.8,0-244,109.3-244,244
	c0,64.7,25.7,126.8,71.5,172.6c95,95.6,249.6,96,345.1,0.9s96-249.6,0.9-345.1c-0.3-0.3-0.6-0.6-0.9-0.9
	C382.7,37.6,320.6,11.9,255.8,12.1z"/>
</svg>
