<?xml version="1.0" encoding="utf-8"?>
<!-- Generator: Adobe Illustrator 23.0.0, SVG Export Plug-In . SVG Version: 6.00 Build 0)  -->
<svg version="1.1" id="Capa_1" xmlns="http://www.w3.org/2000/svg" xmlns:xlink="http://www.w3.org/1999/xlink" x="0px" y="0px"
	 viewBox="0 0 512 512" style="enable-background:new 0 0 512 512;" xml:space="preserve">
<style type="text/css">
	.st0{fill:#FFFFFF;}
</style>
<path class="st0" d="M195.4,65H79.1c-29.3,0-53.2,23.9-53.2,53.2v226.7c0,29.3,23.9,53.2,53.2,53.2h87.7c2.7,0,5.1,1,7,2.9
	l61.9,61.9c6.7,6.7,15.6,10.4,25.1,10.4c9.5,0,18.4-3.7,25.1-10.4l61.9-61.9c1.9-1.9,4.4-2.9,7-2.9h78c29.3,0,53.2-23.9,53.2-53.2
	V118.2c0-29.3-23.9-53.2-53.2-53.2H256c-7,0-12.7,5.7-12.7,12.7c0,7,5.7,12.7,12.7,12.7h176.9c15.4,0,27.9,12.5,27.9,27.9v226.7
	c0,15.4-12.5,27.9-27.9,27.9h-78c-9.4,0-18.3,3.7-24.9,10.3L268,445c-1.9,1.9-4.5,3-7.2,3c-2.7,0-5.3-1.1-7.2-3l-61.9-61.9
	c-6.7-6.7-15.5-10.3-24.9-10.3H79.1c-15.4,0-27.9-12.5-27.9-27.9V118.2c0-15.4,12.5-27.9,27.9-27.9h116.3c7,0,12.7-5.7,12.7-12.7
	C208,70.7,202.4,65,195.4,65z"/>
<path class="st0" d="M116.2,186.7v93.4c0,22.3,18.1,40.4,40.4,40.4h128.8c19.4,0,35.7-13.8,39.5-32.1l42.2,20.1c2.8,1.3,5.7,2,8.6,2
	c3.7,0,7.4-1,10.7-3.1c5.8-3.7,9.3-10,9.3-16.9V176.3c0-6.9-3.5-13.2-9.3-16.9c-5.8-3.7-13-4.1-19.3-1.2L325,178.3
	c-3.9-18.3-20.1-32.1-39.5-32.1H156.6C134.3,146.3,116.2,164.4,116.2,186.7z M370.5,184.7v97.4l-44.6-21.2V206L370.5,184.7z
	 M300.5,186.7v93.4c0,8.3-6.8,15.1-15.1,15.1H156.6c-8.3,0-15.1-6.8-15.1-15.1v-93.4c0-8.3,6.8-15.1,15.1-15.1h128.8
	C293.8,171.6,300.5,178.4,300.5,186.7z"/>
</svg>
