<?xml version="1.0" encoding="utf-8"?>
<!-- Generator: Adobe Illustrator 23.0.0, SVG Export Plug-In . SVG Version: 6.00 Build 0)  -->
<svg version="1.1" id="Capa_1" xmlns="http://www.w3.org/2000/svg" xmlns:xlink="http://www.w3.org/1999/xlink" x="0px" y="0px"
	 viewBox="0 0 512 512" style="enable-background:new 0 0 512 512;" xml:space="preserve">
<style type="text/css">
	.st0{fill:#FFFFFF;}
</style>
<path class="st0" d="M353.7,54.3h-37.2c-4.2,0-7.6-3.4-7.6-7.6c0-4.2,3.4-7.6,7.6-7.6h37.2c4.2,0,7.6,3.4,7.6,7.6
	C361.3,50.9,357.9,54.3,353.7,54.3z"/>
<path class="st0" d="M384.3,234.4h-21.7V7.6c0-4.2-3.4-7.6-7.6-7.6h-84.5c-4.2,0-7.6,3.4-7.6,7.6v52.2H227c-4.2,0-7.6,3.4-7.6,7.6
	v61.5v0v47.6c0-0.1-0.1-0.1-0.1-0.2c0-0.1-0.1-0.2-0.1-0.3c-9.7-19.2-19-35.5-27.8-48.6c1.4-2.2,2.7-4.5,3.8-6.9
	c5.4-11.9,5.8-25.2,1.2-37.4c-8.8-23.4-62-53.4-68-56.7c-1.8-1-4-1.2-5.9-0.4c-1.9,0.7-3.5,2.3-4.2,4.2
	c-2.3,6.5-22.3,64.1-13.5,87.5c4.6,12.2,13.7,21.9,25.6,27.3c2.4,1.1,4.9,2,7.4,2.7c0,0.3,0.1,0.6,0.1,0.9c0.2,1.4,0.4,2.8,0.6,4.2
	c0.1,0.5,0.1,1,0.2,1.5c0.2,1.1,0.3,2.1,0.5,3.2c0.1,0.6,0.2,1.2,0.3,1.8c0.2,1.4,0.5,2.8,0.7,4.2c0.1,0.6,0.2,1.3,0.3,1.9
	c0.2,1.2,0.4,2.3,0.7,3.5c0.1,0.5,0.2,1,0.3,1.5c0.3,1.6,0.7,3.3,1,5c0.1,0.4,0.2,0.9,0.3,1.3c1.7,8.2,3.8,16.9,6.2,25.9
	c0,0.1,0,0.1,0.1,0.2c2.7,10.2,5.7,20.8,9.1,31.7h-31c-14,0-25.3,11.4-25.3,25.3v21.1c0,14,11.4,25.3,25.3,25.3h4.3v59.3
	c0,4.2,3.4,7.6,7.6,7.6c4.2,0,7.6-3.4,7.6-7.6v-59.3h218.1v171.1c0,10.9-8.8,19.7-19.7,19.7H166.5c-10.9,0-19.7-8.8-19.7-19.7v-76.9
	c0-4.2-3.4-7.6-7.6-7.6c-4.2,0-7.6,3.4-7.6,7.6v76.9c0,19.2,15.6,34.8,34.8,34.8h178.7c19.2,0,34.8-15.6,34.8-34.8V306.1h4.3
	c14,0,25.3-11.4,25.3-25.3v-21.1C409.6,245.7,398.3,234.4,384.3,234.4z M278.1,15.1h69.4v63.8h-30.9c-4.2,0-7.6,3.4-7.6,7.6
	c0,4.2,3.4,7.6,7.6,7.6h30.9v24.6h-30.9c-4.2,0-7.6,3.4-7.6,7.6c0,4.2,3.4,7.6,7.6,7.6h30.9v24.6h-30.9c-4.2,0-7.6,3.4-7.6,7.6
	c0,4.2,3.4,7.6,7.6,7.6h30.9V198h-30.9c-4.2,0-7.6,3.4-7.6,7.6c0,4.2,3.4,7.6,7.6,7.6h30.9v21.2h-51.1v-167c0-4.2-3.4-7.6-7.6-7.6
	h-10.8V15.1z M281.3,136.4v97.9h-15.8v-97.9H281.3z M281.3,74.9v44.3h-46.7V74.9H281.3z M234.6,208.3v-71.9h15.8v97.9h-4.8
	c-3.6-8.8-7.2-17.4-10.9-25.8C234.6,208.5,234.6,208.4,234.6,208.3z M159.6,186.1c-0.1-0.4-0.2-0.8-0.3-1.2
	c-0.4-1.6-0.7-3.2-1.1-4.7c-0.1-0.6-0.3-1.3-0.4-1.9c-0.3-1.4-0.6-2.8-0.9-4.1c-0.2-0.8-0.3-1.6-0.5-2.3c-0.2-0.8-0.3-1.6-0.5-2.5
	c-0.2-1.2-0.5-2.4-0.7-3.6c-0.1-0.7-0.3-1.4-0.4-2.1c-0.2-1.1-0.4-2.1-0.6-3.2c-0.2-0.9-0.3-1.8-0.5-2.7c-0.1-0.7-0.2-1.4-0.3-2.1
	c-0.2-1.2-0.4-2.4-0.6-3.6c-0.1-0.5-0.2-1-0.2-1.6c-0.1-0.4-0.1-0.8-0.2-1.1c5.2-0.2,10.5-1.2,15.5-3.1c5-1.9,9.7-4.6,13.7-7.9
	c0.1,0.2,0.3,0.4,0.4,0.6c0.1,0.1,0.1,0.2,0.2,0.2c5,7.6,10.2,16.5,15.5,26.2c0.2,0.3,0.4,0.7,0.6,1c0.3,0.5,0.5,1,0.8,1.5
	c0.4,0.7,0.7,1.4,1.1,2.1c0.1,0.2,0.3,0.5,0.4,0.7c0.8,1.5,1.6,3.1,2.5,4.7l-42.2,15.9C160.4,189.5,160,187.8,159.6,186.1z
	 M118,112.7c-4.7-12.5,3.4-46.4,10.9-69.7c21,12.5,49.6,32.7,54.3,45.1c3.3,8.7,3,18.2-0.8,26.6s-10.7,15-19.4,18.2
	C144.9,139.8,124.8,130.7,118,112.7z M164.4,205.1l45-17c3.4,6.9,6.8,14.1,10.2,21.6c0.2,1.2,0.7,2.3,1.5,3.3
	c3.1,6.9,6.2,14.1,9.2,21.4h-57.1C169.9,224.3,167,214.5,164.4,205.1z M394.5,280.7c0,5.6-4.6,10.2-10.2,10.2h-257
	c-5.6,0-10.2-4.6-10.2-10.2v-21.1c0-5.6,4.6-10.2,10.2-10.2h226.4c0.4,0.1,0.9,0.1,1.3,0.1c0.5,0,0.9,0,1.3-0.1h28
	c5.6,0,10.2,4.6,10.2,10.2V280.7z"/>
</svg>
