<?xml version="1.0" encoding="utf-8"?>
<!-- Generator: Adobe Illustrator 23.0.0, SVG Export Plug-In . SVG Version: 6.00 Build 0)  -->
<svg version="1.1" id="Capa_1" xmlns="http://www.w3.org/2000/svg" xmlns:xlink="http://www.w3.org/1999/xlink" x="0px" y="0px"
	 viewBox="0 0 512 512" style="enable-background:new 0 0 512 512;" xml:space="preserve">
<style type="text/css">
	.st0{fill:#FFFFFF;}
	.st1{fill:#F7C341;}
</style>
<path class="st0" d="M348.7,241.5h-14.5V89.1c0-2.8-2.3-5.1-5.1-5.1h-56.8c-2.8,0-5.1,2.3-5.1,5.1v35H243c-2.8,0-5.1,2.3-5.1,5.1
	v41.4l0,0v32c0-0.1-0.1-0.1-0.1-0.1c0-0.1-0.1-0.1-0.1-0.2c-6.5-12.9-12.8-23.9-18.7-32.7c0.9-1.5,1.8-3,2.6-4.7
	c3.7-8,3.9-16.9,0.8-25.2c-5.9-15.7-41.6-35.9-45.7-38.1c-1.2-0.6-2.7-0.8-3.9-0.3c-1.3,0.5-2.4,1.6-2.8,2.8
	c-1.6,4.4-15,43.1-9.1,58.8c3.1,8.2,9.2,14.7,17.2,18.3c1.6,0.7,3.3,1.4,4.9,1.8c0,0.2,0.1,0.4,0.1,0.6c0.1,0.9,0.3,1.9,0.4,2.8
	c0.1,0.4,0.1,0.6,0.1,1c0.1,0.7,0.2,1.4,0.4,2.2c0.1,0.4,0.1,0.8,0.2,1.2c0.1,0.9,0.4,1.9,0.5,2.8c0.1,0.4,0.1,0.9,0.2,1.3
	c0.1,0.8,0.3,1.6,0.5,2.4c0.1,0.4,0.1,0.6,0.2,1c0.2,1.1,0.5,2.2,0.6,3.4c0.1,0.3,0.1,0.6,0.2,0.9c1.1,5.5,2.6,11.3,4.2,17.4
	c0,0.1,0,0.1,0.1,0.1c1.8,6.9,3.8,14,6.1,21.3h-20.9c-9.4,0-17,7.7-17,17V273c0,9.4,7.7,17,17,17h2.9V330c0,2.8,2.3,5.1,5.1,5.1
	c2.8,0,5.1-2.3,5.1-5.1v-39.9h146.6v115c0,7.3-5.9,13.3-13.3,13.3H202.4c-7.3,0-13.3-5.9-13.3-13.3v-51.7c0-2.8-2.3-5.1-5.1-5.1
	c-2.8,0-5.1,2.3-5.1,5.1v51.7c0,12.9,10.5,23.4,23.4,23.4h120c12.9,0,23.4-10.5,23.4-23.4V289.7h2.9c9.4,0,17-7.7,17-17v-14.2
	C365.8,249.1,358.2,241.5,348.7,241.5z M277.5,94.2h46.7v42.9h-20.8c-2.8,0-5.1,2.3-5.1,5.1s2.3,5.1,5.1,5.1h20.8v16.6h-20.8
	c-2.8,0-5.1,2.3-5.1,5.1c0,2.8,2.3,5.1,5.1,5.1h20.8v16.6h-20.8c-2.8,0-5.1,2.3-5.1,5.1c0,2.8,2.3,5.1,5.1,5.1h20.8v16.3h-20.8
	c-2.8,0-5.1,2.3-5.1,5.1c0,2.8,2.3,5.1,5.1,5.1h20.8v14.3h-34.3V129.3c0-2.8-2.3-5.1-5.1-5.1h-7.2V94.2L277.5,94.2z M279.6,175.7
	v65.8H269v-65.8H279.6L279.6,175.7z M279.6,134.3v29.7h-31.4v-29.7H279.6z M248.2,224v-48.3h10.6v65.8h-3.2
	c-2.4-5.9-4.8-11.7-7.3-17.3C248.2,224.1,248.2,224.1,248.2,224z M197.8,209.1c-0.1-0.3-0.1-0.5-0.2-0.8c-0.3-1.1-0.5-2.2-0.7-3.2
	c-0.1-0.4-0.2-0.9-0.3-1.3c-0.2-0.9-0.4-1.9-0.6-2.7c-0.1-0.5-0.2-1.1-0.4-1.6c-0.1-0.5-0.2-1.1-0.4-1.6c-0.1-0.8-0.4-1.6-0.5-2.4
	c-0.1-0.5-0.2-0.9-0.3-1.4c-0.1-0.7-0.3-1.4-0.4-2.2c-0.1-0.6-0.2-1.2-0.4-1.8c-0.1-0.5-0.1-0.9-0.2-1.4c-0.1-0.8-0.3-1.6-0.4-2.4
	c-0.1-0.4-0.1-0.6-0.1-1.1c-0.1-0.3-0.1-0.5-0.1-0.7c3.5-0.1,7-0.8,10.4-2.1c3.4-1.3,6.5-3.1,9.2-5.3c0.1,0.1,0.2,0.3,0.3,0.4
	c0.1,0.1,0.1,0.1,0.1,0.1c3.4,5.1,6.9,11.1,10.4,17.6c0.1,0.2,0.3,0.5,0.4,0.6c0.2,0.4,0.4,0.6,0.5,1c0.3,0.5,0.5,0.9,0.7,1.4
	c0.1,0.1,0.2,0.4,0.3,0.5c0.5,1,1.1,2.1,1.6,3.2l-28.4,10.7C198.3,211.4,198,210.2,197.8,209.1z M169.9,159.8
	c-3.2-8.4,2.3-31.2,7.3-46.8c14.1,8.4,33.3,22,36.5,30.3c2.2,5.9,2,12.3-0.5,17.8c-2.6,5.7-7.2,10.1-13,12.3
	C187.9,178,174.4,171.8,169.9,159.8z M201,221.8l30.2-11.4c2.3,4.7,4.6,9.5,6.9,14.5c0.1,0.8,0.5,1.6,1,2.2
	c2.1,4.7,4.2,9.5,6.2,14.4h-38.3C204.7,234.7,202.8,228.1,201,221.8z M355.6,272.7c0,3.8-3.1,6.9-6.9,6.9H176.1
	c-3.8,0-6.9-3.1-6.9-6.9v-14.2c0-3.8,3.1-6.9,6.9-6.9h152.2c0.3,0.1,0.6,0.1,0.9,0.1c0.4,0,0.6,0,0.9-0.1h18.8
	c3.8,0,6.9,3.1,6.9,6.9L355.6,272.7L355.6,272.7z"/>
<path class="st1" d="M255.8,511.2C114.9,511.1,0.8,396.8,0.9,255.9C1,153.5,62.3,61,156.6,21.1C286.3-33.8,436,26.8,490.9,156.5
	c40.6,95.8,18.9,206.6-54.7,280C388.4,484.4,323.5,511.3,255.8,511.2z M255.8,12.1c-134.8,0-244,109.3-244,244
	c0,64.7,25.7,126.8,71.5,172.6c95,95.6,249.6,96,345.1,0.9s96-249.6,0.9-345.1c-0.3-0.3-0.6-0.6-0.9-0.9
	C382.7,37.6,320.6,11.9,255.8,12.1z"/>
</svg>
