<?xml version="1.0" encoding="utf-8"?>
<!-- Generator: Adobe Illustrator 23.0.0, SVG Export Plug-In . SVG Version: 6.00 Build 0)  -->
<svg version="1.1" id="Capa_1" xmlns="http://www.w3.org/2000/svg" xmlns:xlink="http://www.w3.org/1999/xlink" x="0px" y="0px"
	 viewBox="0 0 512 512" style="enable-background:new 0 0 512 512;" xml:space="preserve">
<style type="text/css">
	.st0{fill:#FFFFFF;}
	.st1{fill:#F7C341;}
</style>
<path class="st0" d="M353.7,54.3h-37.2c-4.2,0-7.6-3.4-7.6-7.6s3.4-7.6,7.6-7.6h37.2c4.2,0,7.6,3.4,7.6,7.6
	C361.3,50.9,357.9,54.3,353.7,54.3z"/>
<path class="st0" d="M350.1,240.1h-15.9V73.6c0-3.1-2.5-5.6-5.6-5.6h-62.1c-3.1,0-5.6,2.5-5.6,5.6v38.3h-26.4
	c-3.1,0-5.6,2.5-5.6,5.6v45.2l0,0v35c0-0.1-0.1-0.1-0.1-0.1c0-0.1-0.1-0.1-0.1-0.2c-7.1-14.1-14-26.1-20.4-35.7c1-1.6,2-3.3,2.8-5.1
	c4-8.7,4.3-18.5,0.9-27.5c-6.5-17.2-45.5-39.2-49.9-41.6c-1.3-0.7-2.9-0.9-4.3-0.3c-1.4,0.5-2.6,1.7-3.1,3.1
	c-1.7,4.8-16.4,47.1-9.9,64.3c3.4,9,10.1,16.1,18.8,20c1.8,0.8,3.6,1.5,5.4,2c0,0.2,0.1,0.4,0.1,0.7c0.1,1,0.3,2.1,0.4,3.1
	c0.1,0.4,0.1,0.7,0.1,1.1c0.1,0.8,0.2,1.5,0.4,2.4c0.1,0.4,0.1,0.9,0.2,1.3c0.1,1,0.4,2.1,0.5,3.1c0.1,0.4,0.1,1,0.2,1.4
	c0.1,0.9,0.3,1.7,0.5,2.6c0.1,0.4,0.1,0.7,0.2,1.1c0.2,1.2,0.5,2.4,0.7,3.7c0.1,0.3,0.1,0.7,0.2,1c1.2,6,2.8,12.4,4.6,19
	c0,0.1,0,0.1,0.1,0.1c2,7.5,4.2,15.3,6.7,23.3h-22.8c-10.3,0-18.6,8.4-18.6,18.6v15.5c0,10.3,8.4,18.6,18.6,18.6h3.2v43.6
	c0,3.1,2.5,5.6,5.6,5.6c3.1,0,5.6-2.5,5.6-5.6v-43.6h160.2v125.7c0,8-6.5,14.5-14.5,14.5H190.2c-8,0-14.5-6.5-14.5-14.5v-56.5
	c0-3.1-2.5-5.6-5.6-5.6c-3.1,0-5.6,2.5-5.6,5.6v56.5c0,14.1,11.5,25.6,25.6,25.6h131.2c14.1,0,25.6-11.5,25.6-25.6V292.8h3.2
	c10.3,0,18.6-8.4,18.6-18.6v-15.5C368.7,248.4,360.4,240.1,350.1,240.1z M272.2,79.1h51v46.9h-22.7c-3.1,0-5.6,2.5-5.6,5.6
	s2.5,5.6,5.6,5.6h22.7v18.1h-22.7c-3.1,0-5.6,2.5-5.6,5.6c0,3.1,2.5,5.6,5.6,5.6h22.7v18.1h-22.7c-3.1,0-5.6,2.5-5.6,5.6
	c0,3.1,2.5,5.6,5.6,5.6h22.7v17.8h-22.7c-3.1,0-5.6,2.5-5.6,5.6c0,3.1,2.5,5.6,5.6,5.6h22.7v15.6h-37.5V117.5c0-3.1-2.5-5.6-5.6-5.6
	h-7.9L272.2,79.1L272.2,79.1z M274.5,168.2v71.9h-11.6v-71.9H274.5z M274.5,123v32.5h-34.3V123H274.5z M240.2,221v-52.8h11.6v71.9
	h-3.5c-2.6-6.5-5.3-12.8-8-18.9C240.2,221.1,240.2,221.1,240.2,221z M185.1,204.7c-0.1-0.3-0.1-0.6-0.2-0.9
	c-0.3-1.2-0.5-2.4-0.8-3.5c-0.1-0.4-0.2-1-0.3-1.4c-0.2-1-0.4-2.1-0.7-3c-0.1-0.6-0.2-1.2-0.4-1.7c-0.1-0.6-0.2-1.2-0.4-1.8
	c-0.1-0.9-0.4-1.8-0.5-2.6c-0.1-0.5-0.2-1-0.3-1.5c-0.1-0.8-0.3-1.5-0.4-2.4c-0.1-0.7-0.2-1.3-0.4-2c-0.1-0.5-0.1-1-0.2-1.5
	c-0.1-0.9-0.3-1.8-0.4-2.6c-0.1-0.4-0.1-0.7-0.1-1.2c-0.1-0.3-0.1-0.6-0.1-0.8c3.8-0.1,7.7-0.9,11.4-2.3c3.7-1.4,7.1-3.4,10.1-5.8
	c0.1,0.1,0.2,0.3,0.3,0.4c0.1,0.1,0.1,0.1,0.1,0.1c3.7,5.6,7.5,12.1,11.4,19.2c0.1,0.2,0.3,0.5,0.4,0.7c0.2,0.4,0.4,0.7,0.6,1.1
	c0.3,0.5,0.5,1,0.8,1.5c0.1,0.1,0.2,0.4,0.3,0.5c0.6,1.1,1.2,2.3,1.8,3.5l-31,11.7C185.7,207.2,185.4,205.9,185.1,204.7z
	 M154.6,150.8c-3.5-9.2,2.5-34.1,8-51.2c15.4,9.2,36.4,24,39.9,33.1c2.4,6.4,2.2,13.4-0.6,19.5c-2.8,6.2-7.9,11-14.2,13.4
	C174.3,170.7,159.6,164,154.6,150.8z M188.6,218.6l33-12.5c2.5,5.1,5,10.4,7.5,15.9c0.1,0.9,0.5,1.7,1.1,2.4
	c2.3,5.1,4.6,10.4,6.8,15.7h-41.9C192.7,232.7,190.6,225.5,188.6,218.6z M357.6,274.2c0,4.1-3.4,7.5-7.5,7.5H161.4
	c-4.1,0-7.5-3.4-7.5-7.5v-15.5c0-4.1,3.4-7.5,7.5-7.5h166.3c0.3,0.1,0.7,0.1,1,0.1c0.4,0,0.7,0,1-0.1h20.6c4.1,0,7.5,3.4,7.5,7.5
	L357.6,274.2L357.6,274.2z"/>
<path class="st1" d="M255.8,511.2C114.9,511.1,0.8,396.8,0.9,255.9C1,153.5,62.3,61,156.6,21.1C286.3-33.8,436,26.8,490.9,156.5
	c40.6,95.8,18.9,206.6-54.7,280C388.4,484.4,323.5,511.3,255.8,511.2z M255.8,12.1c-134.8,0-244,109.3-244,244
	c0,64.7,25.7,126.8,71.5,172.6c95,95.6,249.6,96,345.1,0.9s96-249.6,0.9-345.1c-0.3-0.3-0.6-0.6-0.9-0.9
	C382.7,37.6,320.6,11.9,255.8,12.1z"/>
</svg>
