<?xml version="1.0" encoding="utf-8"?>
<!-- Generator: Adobe Illustrator 23.0.0, SVG Export Plug-In . SVG Version: 6.00 Build 0)  -->
<svg version="1.1" id="Capa_1" xmlns="http://www.w3.org/2000/svg" xmlns:xlink="http://www.w3.org/1999/xlink" x="0px" y="0px"
	 viewBox="0 0 512 512" style="enable-background:new 0 0 512 512;" xml:space="preserve">
<style type="text/css">
	.st0{fill:#FFFFFF;}
	.st1{fill:#F7C341;}
</style>
<g>
	<g>
		<path class="st0" d="M318.2,180.8h-95.6c-2.5,0-4.5,2-4.5,4.5s2,4.5,4.5,4.5h95.6c2.5,0,4.5-2,4.5-4.5
			C322.7,182.9,320.6,180.8,318.2,180.8z"/>
	</g>
</g>
<g>
	<g>
		<path class="st0" d="M201.7,180.8h-15.1c-2.5,0-4.5,2-4.5,4.5s2,4.5,4.5,4.5h15.1c2.5,0,4.5-2,4.5-4.5
			C206.3,182.9,204.2,180.8,201.7,180.8z"/>
	</g>
</g>
<g>
	<g>
		<path class="st0" d="M233.6,318.4h-46.9c-2.5,0-4.5,2-4.5,4.5c0,2.5,2,4.5,4.5,4.5h46.9c2.5,0,4.5-2,4.5-4.5
			C238.1,320.4,236,318.4,233.6,318.4z"/>
	</g>
</g>
<g>
	<g>
		<path class="st0" d="M252.4,272.5h-65.8c-2.5,0-4.5,2-4.5,4.5s2,4.5,4.5,4.5h65.8c2.5,0,4.5-2,4.5-4.5
			C256.9,274.5,254.9,272.5,252.4,272.5z"/>
	</g>
</g>
<g>
	<g>
		<path class="st0" d="M284.4,226.7h-97.8c-2.5,0-4.5,2-4.5,4.5c0,2.5,2,4.5,4.5,4.5h97.8c2.5,0,4.5-2,4.5-4.5
			C288.9,228.8,286.9,226.7,284.4,226.7z"/>
	</g>
</g>
<g>
	<g>
		<path class="st0" d="M369.4,134.9H183.9c-16.5,0-29.8,13.4-29.8,29.8v176.6h-46.7c-1.2,0-2.3,0.5-3.2,1.3c-0.9,0.9-1.3,2-1.3,3.2
			c0.2,17.8,13,31.2,29.8,31.2h185.5h0.5c16.5,0,29.8-13.4,29.8-29.8v-54.4c0-2.5-2-4.5-4.5-4.5c-2.5,0-4.5,2-4.5,4.5v54.4
			c0,11.5-9.3,20.8-20.8,20.8h-0.5c-11.7,0-20.7-9.6-20.8-22.4c0-2.5-2-4.4-4.5-4.4H163.1V164.7c0-11.5,9.3-20.8,20.8-20.8h164.2
			c-0.1,0.1-0.3,0.3-0.3,0.4c-0.2,0.2-0.3,0.3-0.5,0.5c-0.2,0.2-0.3,0.3-0.5,0.5c-0.2,0.2-0.3,0.3-0.5,0.5s-0.3,0.3-0.4,0.5
			c-0.1,0.2-0.3,0.3-0.4,0.5c-0.1,0.2-0.3,0.4-0.4,0.6c-0.1,0.2-0.3,0.3-0.4,0.6c-0.1,0.2-0.3,0.4-0.3,0.6c-0.1,0.2-0.3,0.4-0.3,0.6
			c-0.1,0.2-0.3,0.4-0.3,0.6s-0.3,0.4-0.3,0.6c-0.1,0.3-0.3,0.4-0.3,0.7c-0.1,0.3-0.3,0.4-0.3,0.7c-0.1,0.3-0.2,0.4-0.3,0.7
			c-0.1,0.3-0.2,0.4-0.3,0.7c-0.1,0.3-0.2,0.5-0.3,0.7c-0.1,0.3-0.2,0.4-0.3,0.7s-0.2,0.5-0.3,0.7c-0.1,0.3-0.2,0.4-0.3,0.7
			c-0.1,0.3-0.1,0.5-0.2,0.7c-0.1,0.3-0.1,0.5-0.2,0.7c-0.1,0.3-0.1,0.5-0.2,0.8c-0.1,0.3-0.1,0.4-0.2,0.7c-0.1,0.3-0.1,0.5-0.1,0.8
			c-0.1,0.3-0.1,0.4-0.1,0.7c-0.1,0.3-0.1,0.6-0.1,0.9c0,0.2-0.1,0.4-0.1,0.6c-0.1,0.3-0.1,0.7-0.1,0.9c0,0.2-0.1,0.3-0.1,0.5
			c0,0.5-0.1,1-0.1,1.5v1.5v38.3c0,2.5,2,4.5,4.5,4.5s4.5-2,4.5-4.5v-33.9h46.1c1.2,0,2.3-0.5,3.2-1.3c0.9-0.9,1.3-2,1.3-3.2
			C399,148.4,386.1,134.9,369.4,134.9z M288.7,350.3c0.1,0.5,0.1,0.9,0.3,1.4c0,0.2,0.1,0.3,0.1,0.5c0.1,0.3,0.1,0.6,0.2,0.9
			c0.1,0.2,0.1,0.3,0.1,0.5c0.1,0.3,0.1,0.5,0.2,0.8c0.1,0.2,0.1,0.3,0.2,0.5c0.1,0.3,0.1,0.5,0.3,0.8c0.1,0.2,0.1,0.3,0.2,0.5
			c0.1,0.3,0.2,0.5,0.3,0.7c0.1,0.2,0.1,0.3,0.2,0.5c0.1,0.3,0.2,0.5,0.3,0.7c0.1,0.2,0.1,0.3,0.3,0.5c0.1,0.3,0.2,0.5,0.3,0.7
			c0.1,0.2,0.1,0.3,0.3,0.5c0.1,0.3,0.3,0.5,0.3,0.7c0.1,0.1,0.1,0.3,0.3,0.5c0.1,0.3,0.3,0.5,0.5,0.9c0.1,0.1,0.1,0.2,0.2,0.3
			c0.3,0.3,0.4,0.7,0.7,1.1c0.1,0.1,0.1,0.2,0.2,0.3c0.2,0.3,0.3,0.5,0.5,0.9c0.1,0.1,0.2,0.3,0.3,0.3c0.2,0.3,0.3,0.5,0.5,0.7
			c0.1,0.1,0.2,0.3,0.3,0.4c0.2,0.2,0.3,0.4,0.5,0.6c0.1,0.1,0.3,0.3,0.3,0.4c0.2,0.2,0.3,0.3,0.5,0.6c0.1,0.1,0.3,0.3,0.3,0.3
			c0.1,0.1,0.2,0.2,0.3,0.3H132.7l0,0c-10.3,0-18.5-7.4-20.4-17.8H288.7L288.7,350.3z M348.8,161.7
			C348.8,161.6,348.8,161.6,348.8,161.7c0-0.2,0.1-0.4,0.1-0.5c0.1-0.2,0.1-0.3,0.1-0.6c0-0.1,0.1-0.3,0.1-0.4
			c0.1-0.2,0.1-0.3,0.1-0.5c0.1-0.1,0.1-0.3,0.1-0.4c0.1-0.2,0.1-0.3,0.1-0.5c0.1-0.2,0.1-0.3,0.1-0.5c0.1-0.2,0.1-0.3,0.2-0.5
			c0.1-0.2,0.1-0.3,0.2-0.5c0.1-0.1,0.1-0.3,0.2-0.4c0.1-0.2,0.1-0.3,0.2-0.5c0.1-0.1,0.1-0.3,0.2-0.4c0.1-0.2,0.1-0.3,0.3-0.5
			c0.1-0.1,0.1-0.3,0.2-0.3c0.1-0.2,0.2-0.3,0.3-0.5c0.1-0.1,0.1-0.1,0.1-0.2c0.4-0.7,0.9-1.5,1.4-2.1l0,0c0.2-0.3,0.3-0.4,0.5-0.7
			c0-0.1,0.1-0.1,0.1-0.1c0.2-0.2,0.3-0.4,0.5-0.6c0.1-0.1,0.1-0.1,0.1-0.1c0.2-0.2,0.3-0.4,0.5-0.6c0-0.1,0.1-0.1,0.1-0.1
			c0.2-0.2,0.3-0.3,0.6-0.6l0.1-0.1c0.2-0.2,0.4-0.4,0.7-0.6l0,0c2.7-2.4,6.1-4.1,9.9-4.8l0,0c0.3-0.1,0.6-0.1,0.9-0.2h0.1
			c0.3-0.1,0.6-0.1,0.9-0.1c0.1,0,0.1,0,0.1,0c0.3,0,0.5-0.1,0.9-0.1c0.2,0,0.3,0,0.5,0s0.3,0,0.5,0c10.3,0,18.5,7.4,20.4,17.8
			L348.8,161.7L348.8,161.7z"/>
	</g>
</g>
<g>
	<g>
		<path class="st0" d="M409.1,217.6c0-0.1,0-0.1,0-0.2c0-0.4-0.1-0.9-0.3-1.2v-0.1v-0.1c-0.1-0.2-0.2-0.3-0.3-0.6c0,0,0-0.1-0.1-0.1
			c-0.1-0.2-0.2-0.3-0.3-0.5c0-0.1-0.1-0.1-0.1-0.1c-0.1-0.2-0.3-0.3-0.3-0.4c0-0.1-0.1-0.1-0.1-0.1c-0.1-0.1-0.3-0.3-0.4-0.3
			l-0.1-0.1c-0.2-0.1-0.3-0.3-0.5-0.3c-0.1,0-0.1-0.1-0.1-0.1c-0.2-0.1-0.3-0.2-0.5-0.3l0,0c-0.2-0.1-0.4-0.1-0.6-0.2
			c-0.1,0-0.1,0-0.1,0c-0.2-0.1-0.4-0.1-0.6-0.1c-37.5-0.9-86.5,8.1-111.3,36.4c-10.8,12.4-15.9,28.1-20.7,43.3
			c-0.4,1.3-0.8,2.5-1.2,3.7c0,0.1-0.1,0.1-0.1,0.2l-7.6,26.9c-0.7,2.4,0.7,4.9,3.1,5.5c0.4,0.1,0.9,0.2,1.2,0.2
			c2,0,3.8-1.3,4.3-3.3l7.1-25c8.6-4,15.5-5.9,24.8-8.4c4.9-1.3,10.3-2.8,17-4.9c14.4-4.4,42-23,54.7-36.7
			c11.1-12,20.5-20.9,31.2-29.9c0,0,0,0,0.1-0.1c0.2-0.1,0.3-0.3,0.4-0.4l0,0c0.1-0.2,0.3-0.3,0.3-0.5c0-0.1,0.1-0.1,0.1-0.1
			c0.3-0.3,0.3-0.7,0.5-1.1c0-0.1,0-0.1,0.1-0.1c0.1-0.2,0.1-0.4,0.1-0.6l0,0c0-0.1,0-0.3,0.1-0.4
			C409.1,217.8,409.1,217.7,409.1,217.6z M300.2,255.4c10.5-11.9,26.5-20.9,47.6-26.7c5.7-1.5,11.7-2.9,17.9-3.9
			c-15.7,7.6-30.7,17.2-39.2,22.8c-13.6,9-28.2,20.1-39,29.8C290.7,269.3,294.6,261.8,300.2,255.4z M369.6,244.9
			c-12.4,13.4-39.1,30.6-50.7,34.2c-6.5,2-11.9,3.5-16.7,4.8c-4.3,1.2-8.3,2.3-12.1,3.5c1.7-1.7,3.8-3.5,6.2-5.6
			c9.7-8.4,22.3-17.9,35.3-26.7c22.7-15.1,43.2-25.8,58.2-30.4C383.2,230.7,376.8,237.2,369.6,244.9z"/>
	</g>
</g>
<path class="st1" d="M255.8,511.2C114.9,511.1,0.8,396.8,0.9,255.9C1,153.5,62.3,61,156.6,21.1C286.3-33.8,436,26.8,490.9,156.5
	c40.6,95.8,18.9,206.6-54.7,280C388.4,484.4,323.5,511.3,255.8,511.2z M255.8,12.1c-134.8,0-244,109.3-244,244
	c0,64.7,25.7,126.8,71.5,172.6c95,95.6,249.6,96,345.1,0.9s96-249.6,0.9-345.1c-0.3-0.3-0.6-0.6-0.9-0.9
	C382.7,37.6,320.6,11.9,255.8,12.1z"/>
</svg>
