<?xml version="1.0" encoding="utf-8"?>
<!-- Generator: Adobe Illustrator 23.0.0, SVG Export Plug-In . SVG Version: 6.00 Build 0)  -->
<svg version="1.1" id="Capa_1" xmlns="http://www.w3.org/2000/svg" xmlns:xlink="http://www.w3.org/1999/xlink" x="0px" y="0px"
	 viewBox="0 0 512 512" style="enable-background:new 0 0 512 512;" xml:space="preserve">
<style type="text/css">
	.st0{fill:#FFFFFF;}
	.st1{fill:#F7C341;}
</style>
<g>
	<g>
		<path class="st0" d="M328.9,167.9h-112c-2.9,0-5.3,2.4-5.3,5.3c0,2.9,2.4,5.3,5.3,5.3h112c2.9,0,5.3-2.4,5.3-5.3
			C334.1,170.3,331.7,167.9,328.9,167.9z"/>
	</g>
</g>
<g>
	<g>
		<path class="st0" d="M192.4,167.9h-17.7c-2.9,0-5.3,2.4-5.3,5.3c0,2.9,2.4,5.3,5.3,5.3h17.7c2.9,0,5.3-2.4,5.3-5.3
			C197.7,170.3,195.3,167.9,192.4,167.9z"/>
	</g>
</g>
<g>
	<g>
		<path class="st0" d="M229.7,329.1h-55c-2.9,0-5.3,2.4-5.3,5.3s2.4,5.3,5.3,5.3h55c2.9,0,5.3-2.4,5.3-5.3S232.6,329.1,229.7,329.1z
			"/>
	</g>
</g>
<g>
	<g>
		<path class="st0" d="M251.8,275.4h-77.1c-2.9,0-5.3,2.4-5.3,5.3s2.4,5.3,5.3,5.3h77.1c2.9,0,5.3-2.4,5.3-5.3
			C257.1,277.7,254.7,275.4,251.8,275.4z"/>
	</g>
</g>
<g>
	<g>
		<path class="st0" d="M289.3,221.7H174.7c-2.9,0-5.3,2.4-5.3,5.3s2.4,5.3,5.3,5.3h114.6c2.9,0,5.3-2.4,5.3-5.3
			S292.2,221.7,289.3,221.7z"/>
	</g>
</g>
<g>
	<g>
		<path class="st0" d="M388.9,114.1H171.5c-19.3,0-34.9,15.7-34.9,34.9v206.9H81.9c-1.4,0-2.7,0.6-3.7,1.5c-1,1-1.5,2.4-1.5,3.8
			c0.2,20.9,15.2,36.6,34.9,36.6h217.4h0.6c19.3,0,34.9-15.7,34.9-34.9v-63.7c0-2.9-2.4-5.3-5.3-5.3s-5.3,2.4-5.3,5.3V363
			c0,13.5-10.9,24.4-24.4,24.4h-0.6c-13.7,0-24.2-11.3-24.4-26.2c0-2.9-2.4-5.2-5.3-5.2H147.1V149c0-13.5,10.9-24.4,24.4-24.4h192.4
			c-0.1,0.1-0.3,0.4-0.4,0.5c-0.2,0.2-0.4,0.4-0.6,0.6c-0.2,0.2-0.4,0.4-0.6,0.6c-0.2,0.2-0.4,0.4-0.6,0.6c-0.2,0.2-0.4,0.4-0.5,0.6
			c-0.1,0.2-0.4,0.4-0.5,0.6c-0.1,0.2-0.4,0.5-0.5,0.7c-0.1,0.2-0.4,0.4-0.5,0.7c-0.1,0.2-0.3,0.5-0.4,0.7c-0.1,0.2-0.3,0.5-0.4,0.7
			c-0.1,0.2-0.3,0.5-0.4,0.7s-0.3,0.5-0.4,0.7c-0.1,0.3-0.3,0.5-0.4,0.8c-0.1,0.3-0.3,0.5-0.4,0.8c-0.1,0.3-0.2,0.5-0.4,0.8
			c-0.1,0.3-0.2,0.5-0.4,0.8c-0.1,0.3-0.2,0.6-0.3,0.8c-0.1,0.3-0.2,0.5-0.3,0.8c-0.1,0.3-0.2,0.6-0.3,0.8c-0.1,0.3-0.2,0.5-0.3,0.8
			s-0.1,0.6-0.2,0.8c-0.1,0.3-0.1,0.6-0.2,0.8c-0.1,0.3-0.1,0.6-0.2,0.9c-0.1,0.3-0.1,0.5-0.2,0.8c-0.1,0.3-0.1,0.6-0.1,0.9
			c-0.1,0.3-0.1,0.5-0.1,0.8c-0.1,0.4-0.1,0.7-0.1,1c0,0.2-0.1,0.5-0.1,0.7c-0.1,0.4-0.1,0.8-0.1,1.1c0,0.2-0.1,0.4-0.1,0.6
			c0,0.6-0.1,1.2-0.1,1.8v1.8v44.9c0,2.9,2.4,5.3,5.3,5.3s5.3-2.4,5.3-5.3v-39.7h54c1.4,0,2.7-0.6,3.7-1.5c1-1,1.5-2.4,1.5-3.8
			C423.6,129.9,408.5,114.1,388.9,114.1z M294.3,366.5c0.1,0.6,0.1,1.1,0.3,1.6c0,0.2,0.1,0.4,0.1,0.6c0.1,0.4,0.1,0.7,0.2,1.1
			c0.1,0.2,0.1,0.4,0.1,0.6c0.1,0.3,0.1,0.6,0.2,0.9c0.1,0.2,0.1,0.4,0.2,0.6c0.1,0.3,0.1,0.6,0.3,0.9c0.1,0.2,0.1,0.4,0.2,0.6
			c0.1,0.3,0.2,0.6,0.3,0.8c0.1,0.2,0.1,0.4,0.2,0.6c0.1,0.3,0.2,0.6,0.4,0.8c0.1,0.2,0.1,0.4,0.3,0.6c0.1,0.3,0.2,0.6,0.4,0.8
			c0.1,0.2,0.1,0.4,0.3,0.6c0.1,0.3,0.3,0.6,0.4,0.8c0.1,0.1,0.1,0.4,0.3,0.6c0.1,0.4,0.4,0.6,0.6,1c0.1,0.1,0.1,0.2,0.2,0.4
			c0.3,0.4,0.5,0.8,0.8,1.3c0.1,0.1,0.1,0.2,0.2,0.3c0.2,0.4,0.4,0.6,0.6,1c0.1,0.1,0.2,0.3,0.3,0.4c0.2,0.3,0.4,0.6,0.6,0.8
			c0.1,0.1,0.2,0.3,0.4,0.5c0.2,0.2,0.4,0.5,0.6,0.7c0.1,0.1,0.3,0.3,0.4,0.5c0.2,0.2,0.4,0.4,0.6,0.7c0.1,0.1,0.3,0.3,0.4,0.4
			c0.1,0.1,0.2,0.2,0.3,0.4H111.5l0,0c-12.1,0-21.7-8.7-23.9-20.9L294.3,366.5L294.3,366.5z M364.7,145.5c0-0.1,0-0.1,0-0.1
			c0-0.1,0.1-0.4,0.1-0.5c0.1-0.2,0.1-0.4,0.1-0.7c0-0.1,0.1-0.4,0.1-0.5c0.1-0.2,0.1-0.4,0.1-0.6c0.1-0.1,0.1-0.4,0.1-0.5
			c0.1-0.2,0.1-0.4,0.1-0.6c0.1-0.2,0.1-0.4,0.1-0.6c0.1-0.2,0.1-0.4,0.2-0.6c0.1-0.2,0.1-0.4,0.2-0.6c0.1-0.1,0.1-0.4,0.2-0.5
			c0.1-0.2,0.1-0.4,0.2-0.6c0.1-0.1,0.1-0.4,0.2-0.5c0.1-0.2,0.1-0.4,0.3-0.6c0.1-0.1,0.1-0.3,0.2-0.4c0.1-0.2,0.2-0.4,0.4-0.6
			c0.1-0.1,0.1-0.1,0.1-0.2c0.5-0.8,1.1-1.7,1.6-2.5l0,0c0.2-0.3,0.4-0.5,0.6-0.8c0-0.1,0.1-0.1,0.1-0.1c0.2-0.2,0.4-0.5,0.6-0.7
			c0.1-0.1,0.1-0.1,0.1-0.1c0.2-0.2,0.4-0.5,0.6-0.7c0-0.1,0.1-0.1,0.1-0.1c0.2-0.2,0.4-0.4,0.7-0.7l0.1-0.1
			c0.2-0.2,0.5-0.5,0.8-0.7l0,0c3.2-2.8,7.2-4.8,11.6-5.6l0,0c0.4-0.1,0.7-0.1,1.1-0.2h0.1c0.4-0.1,0.7-0.1,1.1-0.1
			c0.1,0,0.1,0,0.1,0c0.4,0,0.6-0.1,1-0.1c0.2,0,0.4,0,0.6,0s0.4,0,0.6,0c12.1,0,21.7,8.7,23.9,20.9L364.7,145.5L364.7,145.5z"/>
	</g>
</g>
<g>
	<g>
		<path class="st0" d="M435.4,211c0-0.1,0-0.1,0-0.2c0-0.5-0.1-1-0.3-1.4v-0.1v-0.1c-0.1-0.2-0.2-0.4-0.3-0.7c0,0,0-0.1-0.1-0.1
			c-0.1-0.2-0.2-0.4-0.4-0.6c0-0.1-0.1-0.1-0.1-0.1c-0.1-0.2-0.3-0.4-0.4-0.5c0-0.1-0.1-0.1-0.1-0.1c-0.1-0.1-0.3-0.3-0.5-0.4
			l-0.1-0.1c-0.2-0.1-0.4-0.3-0.6-0.4c-0.1,0-0.1-0.1-0.1-0.1c-0.2-0.1-0.4-0.2-0.6-0.3l0,0c-0.2-0.1-0.5-0.1-0.7-0.2
			c-0.1,0-0.1,0-0.1,0c-0.2-0.1-0.5-0.1-0.7-0.1c-44-1.1-101.4,9.5-130.4,42.6c-12.7,14.5-18.6,32.9-24.2,50.7
			c-0.5,1.5-0.9,2.9-1.4,4.3c0,0.1-0.1,0.1-0.1,0.2l-8.9,31.5c-0.8,2.8,0.8,5.7,3.6,6.5c0.5,0.1,1,0.2,1.4,0.2c2.3,0,4.4-1.5,5-3.9
			l8.3-29.3c10.1-4.7,18.2-6.9,29.1-9.9c5.7-1.5,12.1-3.3,19.9-5.7c16.9-5.2,49.2-26.9,64.1-43c13-14.1,24-24.5,36.6-35
			c0,0,0,0,0.1-0.1c0.2-0.1,0.4-0.4,0.5-0.5l0,0c0.1-0.2,0.3-0.4,0.4-0.6c0-0.1,0.1-0.1,0.1-0.1c0.3-0.4,0.4-0.8,0.6-1.3
			c0-0.1,0-0.1,0.1-0.1c0.1-0.2,0.1-0.5,0.1-0.7l0,0c0-0.1,0-0.4,0.1-0.5C435.4,211.2,435.4,211.1,435.4,211z M307.8,255.3
			c12.3-13.9,31-24.5,55.8-31.3c6.7-1.8,13.7-3.4,21-4.6c-18.4,8.9-36,20.1-45.9,26.7c-15.9,10.6-33,23.5-45.7,34.9
			C296.7,271.6,301.2,262.8,307.8,255.3z M389.1,243c-14.5,15.7-45.8,35.9-59.4,40.1c-7.6,2.4-14,4.1-19.6,5.6
			c-5,1.4-9.7,2.7-14.2,4.1c2-2,4.4-4.1,7.3-6.6c11.4-9.9,26.1-21,41.4-31.3c26.6-17.7,50.6-30.2,68.2-35.6
			C405,226.4,397.5,234,389.1,243z"/>
	</g>
</g>
<path class="st1" d="M255.8,511.2C114.9,511.1,0.8,396.8,0.9,255.9C1,153.5,62.3,61,156.6,21.1C286.3-33.8,436,26.8,490.9,156.5
	c40.6,95.8,18.9,206.6-54.7,280C388.4,484.4,323.5,511.3,255.8,511.2z M255.8,12.1c-134.8,0-244,109.3-244,244
	c0,64.7,25.7,126.8,71.5,172.6c95,95.6,249.6,96,345.1,0.9s96-249.6,0.9-345.1c-0.3-0.3-0.6-0.6-0.9-0.9
	C382.7,37.6,320.6,11.9,255.8,12.1z"/>
</svg>
